<svg width="420" height="420" viewBox="0 0 420 420" fill="none" xmlns="http://www.w3.org/2000/svg">
  <rect width="420" height="420" rx="48" fill="#0F172A"/>
  <circle cx="210" cy="152" r="74" fill="#1E293B" stroke="#2DD4BF" stroke-width="4"/>
  <path d="M143 297C143 259.997 172.997 230 210 230C247.003 230 277 259.997 277 297V322H143V297Z" fill="#1E293B" stroke="#60A5FA" stroke-width="4"/>
  <circle cx="182" cy="148" r="12" fill="#2DD4BF"/>
  <circle cx="238" cy="148" r="12" fill="#2DD4BF"/>
  <path d="M181 186C189.307 194.699 200.884 199 213 199C225.116 199 236.693 194.699 245 186" stroke="#A78BFA" stroke-width="8" stroke-linecap="round"/>
  <path d="M130 88L154 108" stroke="#F97316" stroke-width="8" stroke-linecap="round"/>
  <path d="M290 88L266 108" stroke="#F97316" stroke-width="8" stroke-linecap="round"/>
  <rect x="117" y="337" width="186" height="30" rx="15" fill="#111827" stroke="#334155" stroke-width="2"/>
  <circle cx="145" cy="352" r="6" fill="#22C55E"/>
  <rect x="161" y="346" width="98" height="12" rx="6" fill="#334155"/>
</svg>
